:SAMPLES-PER-SECOND 30
:FULLY-SPECIFIED
:DEGREES
305
root  35.07605425 36.5031385 -14.82770274 10.06411076 4.985390186 3.290233374
lowerback  -8.777759552 1.654360175 1.289039969
upperback  -3.997349977 1.748090029 -3.862119913
thorax  0.9371960163 0.6532279849 -4.568369865
lowerneck  -16.57159996 -0.04479499906 1.538400054
upperneck  20.21050072 -1.945829988 4.248079777
head  9.131690025 -0.5156340003 0.9219968319
lclavicle  0 -4.497500157e-015 -2.743230041e-014
lhumerus  -45.81790161 27.42670059 67.67009735
lradius  -0.2718986571 -6.507048965e-006 27.4559021
lwrist  4.824992743e-007 -3.790274832e-007 -31.02050018
lhand  -4.410347018e-031 -36.80820084 -10.72949982
lfingers  90 7.125020027 -90
lthumb  94.78452273 -25.5675149 100.9757892
rclavicle  0 -4.497500157e-015 -2.743230041e-014
rhumerus  7.059230804 13.29660034 -63.8260994
rradius  -5.16745672e-007 2.214343908e-008 99.58830261
rwrist  -3.062178075e-005 0.01194404531 -179.2440033
rhand  -1.770623531e-031 4.333079815 -5.267119884
rfingers  -90 -7.125020027 -90
rthumb  -83.93193415 -10.48547424 -59.70908151
rfemur  -12.99123478 13.24950218 14.07158852
rtibia  -1.460706234 1.524819493 21.93176651
rfoot  -1.292063475 -17.3448658 -41.56800079
rtoes  3.877326673 19.635675 -101.4030224
lfemur  -11.25397873 -20.59843636 -18.13588333
ltibia  1.95166409 1.246182442 16.04354858
lfoot  0.6905145645 -28.26912498 33.62091446
ltoes  -8.547567483 -18.14945855 -115.7577042
306
root  35.07762218 36.50405463 -14.82448428 10.00307083 4.882143974 3.260232449
lowerback  -8.809089661 1.626330137 1.289589882
upperback  -3.980420113 1.710899949 -3.873800039
thorax  0.9689999819 0.6349560022 -4.584010124
lowerneck  -16.63489914 -0.1421319991 1.375329971
upperneck  20.3185997 -2.065749884 4.309100151
head  9.184419632 -0.5771609545 0.9549850821
lclavicle  0 -4.497500157e-015 -2.743230041e-014
lhumerus  -45.79050064 27.5387001 67.60630035
lradius  -0.2734779716 -6.507048965e-006 27.42200089
lwrist  4.824992743e-007 -3.790274832e-007 -31.11359978
lhand  -4.40946029e-031 -36.7928009 -10.68690014
lfingers  90 7.125020027 -90
lthumb  94.76832672 -25.52634129 100.9554259
rclavicle  0 -4.497500157e-015 -2.743230041e-014
rhumerus  5.415958405 13.0060997 -64.3707962
rradius  -5.16745672e-007 2.214343908e-008 100.4260025
rwrist  -3.062178075e-005 0.01194404531 -179.2429962
rhand  -1.771272517e-031 4.601819992 -5.569429874
rfingers  -90 -7.125020027 -90
rthumb  -84.01712349 -10.23759334 -59.47347959
rfemur  -12.88934422 13.20281124 14.09423065
rtibia  -1.426707745 1.479108334 21.8249073
rfoot  -1.224329233 -17.44048882 -41.44443893
rtoes  3.889144126 19.63342657 -101.4381913
lfemur  -11.22092247 -20.61376762 -18.11374474
ltibia  1.909017682 1.192529678 16.10990143
lfoot  0.6802849174 -28.20214081 33.66795731
ltoes  -8.560305061 -18.14361291 -115.7986021
307
root  35.08252422 36.50578476 -14.81480936 9.928087234 4.837924004 3.265936136
lowerback  -8.821080208 1.567730069 1.249740243
upperback  -3.967829943 1.636139989 -3.864160061
thorax  0.980576992 0.5983340144 -4.558390141
lowerneck  -16.63080025 -0.2311329991 1.265709996
upperneck  20.2935009 -2.170409918 4.35807991
head  9.178190231 -0.6299179792 0.9765200019
lclavicle  0 -4.497500157e-015 -2.743230041e-014
lhumerus  -45.71480179 27.63969994 67.55500031
lradius  -0.27505669 -6.507048965e-006 27.34800148
lwrist  4.824992743e-007 -3.790274832e-007 -31.19269943
lhand  -4.411539904e-031 -36.82889938 -10.68379974
lfingers  90 7.125020027 -90
lthumb  94.78458383 -25.52196928 100.9937526
rclavicle  0 -4.497500157e-015 -2.743230041e-014
rhumerus  3.84014082 12.68929958 -64.67500305
rradius  -5.16745672e-007 2.214343908e-008 101.2890015
rwrist  -3.062178075e-005 0.01194404531 -179.3829956
rhand  -1.771410377e-031 4.656889915 -5.684249878
rfingers  -90 -7.125020027 -90
rthumb  -84.06209884 -10.14144615 -59.42994643
rfemur  -12.75696373 13.21022701 14.07398987
rtibia  -1.397044659 1.460567713 21.73536873
rfoot  -1.180899262 -17.45775795 -41.41653824
rtoes  3.893521665 19.63259187 -101.4512199
lfemur  -11.11990452 -20.56739044 -18.18498421
ltibia  1.906493664 1.154099464 16.10645103
lfoot  0.6443149447 -28.16606522 33.60357666
ltoes  -8.582365106 -18.13346325 -115.8694627
308
root  35.09075435 36.50845505 -14.80667835 9.861551285 4.798750877 3.277566433
lowerback  -8.746740341 1.478069901 1.087629914
upperback  -3.992810011 1.527109981 -3.785180092
thorax  0.8979070187 0.5446059704 -4.395170212
lowerneck  -16.52729988 -0.2983990014 1.069769979
upperneck  20.19029999 -2.229249954 4.474480152
head  9.127380371 -0.6629509926 1.041110039
lclavicle  0 -4.497500157e-015 -2.743230041e-014
lhumerus  -45.74309921 27.69319916 67.58409882
lradius  -0.2766337097 -6.507048965e-006 27.37150192
lwrist  4.824992743e-007 -3.790274832e-007 -31.1093998
lhand  -0 -36.90200043 -10.65149975
lfingers  90 7.125020027 -90
lthumb  94.81200627 -25.48770008 101.06903
rclavicle  0 -4.497500157e-015 -2.743230041e-014
rhumerus  2.320510387 12.45759964 -65.13310242
rradius  -5.16745672e-007 2.214343908e-008 101.8880005
rwrist  -3.062178075e-005 0.01194404531 -179.8639984
rhand  -1.771934622e-031 4.860549927 -5.444180012
rfingers  -90 -7.125020027 -90
rthumb  -83.8843206 -10.35799415 -59.20826702
rfemur  -12.64773941 13.25287151 14.03652859
rtibia  -1.373267651 1.467502117 21.67297745
rfoot  -1.156094313 -17.42257118 -41.42518997
rtoes  3.889037205 19.63344695 -101.4378731
lfemur  -10.99632645 -20.44760704 -18.27599525
ltibia  1.922512054 1.145891428 16.05389214
lfoot  0.6064272523 -28.17170525 33.51250076
ltoes  -8.602598352 -18.1241254 -115.9344892
